<svg width="83" height="76" fill="none" xmlns="http://www.w3.org/2000/svg"><path stroke="#F2F2F2" d="M.5 0v76"/><path fill="#fff" d="M1 0h81v76H1z"/><path fill-rule="evenodd" clip-rule="evenodd" d="M40.166 31.333a5.833 5.833 0 100 11.667 5.833 5.833 0 000-11.667zm-7.5 5.834a7.5 7.5 0 1115 0 7.5 7.5 0 01-15 0z" fill="#111113"/><path fill-rule="evenodd" clip-rule="evenodd" d="M44.286 41.286a.833.833 0 011.178 0l3.625 3.625a.833.833 0 11-1.178 1.178l-3.625-3.625a.833.833 0 010-1.178z" fill="#111113"/><path stroke="#F2F2F2" d="M82.5 0v76"/></svg>