<svg width="83" height="76" fill="none" xmlns="http://www.w3.org/2000/svg"><path fill="#fff" d="M1 0h81v76H1z"/><path stroke="#F2F2F2" d="M.5 0v76"/><g clip-path="url(#clip0_8_2660)" fill-rule="evenodd" clip-rule="evenodd" fill="#000"><path d="M36.834 45.5a1.667 1.667 0 113.333 0 1.667 1.667 0 01-3.334 0zm9.166 0a1.667 1.667 0 113.333 0 1.667 1.667 0 01-3.333 0zM31 28.833c0-.46.373-.833.833-.833h3.334c.397 0 .739.28.817.67l.7 3.497h13.483a.833.833 0 01.818.99l-1.334 6.997a2.5 2.5 0 01-2.492 2.013h-8.085a2.5 2.5 0 01-2.491-2.012l-1.392-6.956a.812.812 0 01-.014-.07l-.693-3.462h-2.65a.833.833 0 01-.834-.834zm6.017 5l1.2 5.996a.833.833 0 00.834.671h8.132a.834.834 0 00.832-.668l1.144-5.999H37.017z"/></g><path opacity=".1" stroke="#111113" d="M82.5 0v76"/><defs><clipPath id="clip0_8_2660"><path fill="#fff" transform="translate(31 28)" d="M0 0h20v20H0z"/></clipPath></defs></svg>