<svg width="82" height="76" viewBox="0 0 82 76" fill="none" xmlns="http://www.w3.org/2000/svg">
<rect width="81" height="76" fill="white"/>
<path d="M40 40.5C42.7614 40.5 45 38.2614 45 35.5C45 32.7386 42.7614 30.5 40 30.5C37.2386 30.5 35 32.7386 35 35.5C35 38.2614 37.2386 40.5 40 40.5Z" stroke="#111113" stroke-width="1.71429" stroke-miterlimit="10"/>
<path d="M32.4207 44.8743C33.1891 43.5442 34.2939 42.4398 35.6243 41.672C36.9547 40.9042 38.4637 40.5 39.9997 40.5C41.5358 40.5 43.0448 40.9043 44.3751 41.6721C45.7055 42.44 46.8103 43.5444 47.5787 44.8744" stroke="#111113" stroke-width="1.71429" stroke-linecap="round" stroke-linejoin="round"/>
<line x1="81.5" y1="2.18557e-08" x2="81.5" y2="76" stroke="#F2F2F2"/>
</svg>
