<svg width="83" height="76" viewBox="0 0 83 76" fill="none" xmlns="http://www.w3.org/2000/svg">
<line x1="0.5" y1="2.18557e-08" x2="0.499997" y2="76" stroke="#F2F2F2"/>
<rect x="1" width="81" height="76" fill="white"/>
<path fill-rule="evenodd" clip-rule="evenodd" d="M40.1665 31.3333C36.9448 31.3333 34.3332 33.945 34.3332 37.1666C34.3332 40.3883 36.9448 43 40.1665 43C43.3882 43 45.9998 40.3883 45.9998 37.1666C45.9998 33.945 43.3882 31.3333 40.1665 31.3333ZM32.6665 37.1666C32.6665 33.0245 36.0244 29.6666 40.1665 29.6666C44.3086 29.6666 47.6665 33.0245 47.6665 37.1666C47.6665 41.3088 44.3086 44.6666 40.1665 44.6666C36.0244 44.6666 32.6665 41.3088 32.6665 37.1666Z" fill="#111113"/>
<path fill-rule="evenodd" clip-rule="evenodd" d="M44.2858 41.2858C44.6113 40.9604 45.1389 40.9604 45.4643 41.2858L49.0893 44.9108C49.4148 45.2363 49.4148 45.7639 49.0893 46.0893C48.7639 46.4148 48.2363 46.4148 47.9108 46.0893L44.2858 42.4643C43.9604 42.1389 43.9604 41.6113 44.2858 41.2858Z" fill="#111113"/>
<line x1="82.5" y1="2.18557e-08" x2="82.5" y2="76" stroke="#F2F2F2"/>
</svg>
