<svg width="82" height="76" viewBox="0 0 82 76" fill="none" xmlns="http://www.w3.org/2000/svg">
<rect width="81" height="76" fill="white"/>
<path d="M40 44.875C40 44.875 32.1875 40.5 32.1875 35.1875C32.1877 34.2485 32.513 33.3386 33.1082 32.6124C33.7035 31.8863 34.5318 31.3886 35.4525 31.2042C36.3732 31.0197 37.3293 31.1598 38.1583 31.6007C38.9874 32.0415 39.6381 32.7558 40 33.6223L40 33.6223C40.3619 32.7559 41.0126 32.0415 41.8417 31.6007C42.6707 31.1598 43.6268 31.0197 44.5475 31.2042C45.4682 31.3886 46.2965 31.8863 46.8918 32.6124C47.487 33.3386 47.8123 34.2485 47.8125 35.1875C47.8125 40.5 40 44.875 40 44.875Z" stroke="#111113" stroke-width="1.71429" stroke-linecap="round" stroke-linejoin="round"/>
<circle cx="45.303" cy="41.182" r="4.24242" fill="#C5C1B8"/>
<line x1="81.5" y1="2.18557e-08" x2="81.5" y2="76" stroke="#F2F2F2"/>
</svg>
