<svg width="83" height="76" viewBox="0 0 83 76" fill="none" xmlns="http://www.w3.org/2000/svg">
<rect x="1" width="81" height="76" fill="white"/>
<line x1="0.5" y1="2.18557e-08" x2="0.499997" y2="76" stroke="#F2F2F2"/>
<g clip-path="url(#clip0_8_2660)">
<path fill-rule="evenodd" clip-rule="evenodd" d="M36.8335 45.4999C36.8335 44.5794 37.5797 43.8333 38.5002 43.8333C39.4206 43.8333 40.1668 44.5794 40.1668 45.4999C40.1668 46.4204 39.4206 47.1666 38.5002 47.1666C37.5797 47.1666 36.8335 46.4204 36.8335 45.4999Z" fill="black"/>
<path fill-rule="evenodd" clip-rule="evenodd" d="M46 45.4999C46 44.5794 46.7462 43.8333 47.6667 43.8333C48.5871 43.8333 49.3333 44.5794 49.3333 45.4999C49.3333 46.4204 48.5871 47.1666 47.6667 47.1666C46.7462 47.1666 46 46.4204 46 45.4999Z" fill="black"/>
<path fill-rule="evenodd" clip-rule="evenodd" d="M31 28.8333C31 28.3731 31.3731 28 31.8333 28H35.1667C35.5639 28 35.9058 28.2803 35.9838 28.6698L36.6837 32.1667H50.1667C50.415 32.1667 50.6504 32.2774 50.8087 32.4688C50.9671 32.6602 51.0318 32.9121 50.9852 33.1561L49.6507 40.154C49.5364 40.7295 49.2233 41.2465 48.7663 41.6144C48.3115 41.9805 47.743 42.1758 47.1595 42.1667H39.0739C38.4903 42.1758 37.9218 41.9805 37.4671 41.6144C37.0102 41.2466 36.6972 40.7299 36.5828 40.1547C36.5827 40.1545 36.5828 40.155 36.5828 40.1547L35.1907 33.1993C35.185 33.1763 35.1803 33.1529 35.1766 33.1292L34.4836 29.6667H31.8333C31.3731 29.6667 31 29.2936 31 28.8333ZM37.0173 33.8333L38.2174 39.8293C38.2555 40.0212 38.3598 40.1935 38.5122 40.3161C38.6645 40.4388 38.8552 40.5039 39.0507 40.5002L39.0667 40.5H47.1667L47.1826 40.5002C47.3782 40.5039 47.5688 40.4388 47.7212 40.3161C47.8728 40.194 47.9769 40.0228 48.0154 39.832L49.1594 33.8333H37.0173Z" fill="black"/>
</g>
<line opacity="0.1" x1="82.5" y1="2.18557e-08" x2="82.5" y2="76" stroke="#111113"/>
<defs>
<clipPath id="clip0_8_2660">
<rect width="20" height="20" fill="white" transform="translate(31 28)"/>
</clipPath>
</defs>
</svg>
